# xmcd
#
# Track frame offsets: 
#        150
#        10962
#        24145
#        35579
#        46581
#        56784
#        70732
#        85291
#        97827
#        113085
#        125141
#        158746
#        179966
#        197596
#        220763
#        231379
#
# Disc length: 3292 seconds
#
# Revision: 0
# Processed by: cddbd v1.5.2PL0 Copyright (c) Steve Scherf et al.
# Submitted via: ExactAudioCopy v0.95a5
#
DISCID=d60cda10
DTITLE=Bo Didley - 16 Live Blues Classics
DYEAR=2000
DGENRE=Blues
TTITLE0=Dancin' Girl
TTITLE1=Cracklin'
TTITLE2=Rockin' Bo
TTITLE3=Let The Kids Dance
TTITLE4=Mess Around
TTITLE5=Somebody's Cryin'
TTITLE6=Hong Kong
TTITLE7=Can I Go Home With You
TTITLE8=I'm Going Home
TTITLE9=Walkin' And Talkin'
TTITLE10=Intro/Bo Didley Vamp
TTITLE11=Evelee
TTITLE12=You Can't Judge A Book By It's Cover
TTITLE13=Doctor Jeckyll
TTITLE14=I Don't Know Where I've Been
TTITLE15=Roadrunner
EXTD=
EXTT0=
EXTT1=
EXTT2=
EXTT3=
EXTT4=
EXTT5=
EXTT6=
EXTT7=
EXTT8=
EXTT9=
EXTT10=
EXTT11=
EXTT12=
EXTT13=
EXTT14=
EXTT15=
PLAYORDER=
